<?xml version="1.0" encoding="UTF-8" standalone="no"?>
<!DOCTYPE svg PUBLIC "-//W3C//DTD SVG 1.1//EN" "http://www.w3.org/Graphics/SVG/1.1/DTD/svg11.dtd">
<svg width="100%" height="100%" viewBox="0 0 165 84" version="1.1" xmlns="http://www.w3.org/2000/svg" xmlns:xlink="http://www.w3.org/1999/xlink" xml:space="preserve" xmlns:serif="http://www.serif.com/" style="fill-rule:evenodd;clip-rule:evenodd;stroke-linejoin:round;stroke-miterlimit:2;">
    <g transform="matrix(1,0,0,1,-1095.88,274.522)">
        <g transform="matrix(1,0,0,1,1260.05,-230.992)">
            <path d="M0,-4.008C-0.043,-3.836 -0.094,-3.663 -0.144,-3.491C-1.911,2.888 -7.736,7.995 -14.338,8.713C-21.391,9.475 -28.675,5.179 -31.419,-1.357C-33.33,-5.876 -33.186,-11.126 -35.492,-15.458C-38.257,-20.68 -44.665,-23.697 -50.447,-22.497C-56.021,-21.362 -60.532,-16.42 -61.308,-10.796L-61.107,-10.674C-60.144,-11.033 -59.11,-11.32 -58.04,-11.522C-54.312,-12.218 -41.964,-13.296 -51.015,-5.718C-54.283,-2.981 -57.407,-1.673 -60.029,-1.12L-59.986,-1.07C-60.453,-0.661 -61.085,1.487 -61.416,3.57C-61.689,5.352 -61.452,6.889 -62.321,7.894C-65.244,11.256 -66.911,20.903 -66.911,22.361C-66.932,27.519 -68.434,27.806 -68.663,28.632C-69.899,33.552 -69.712,33.143 -71.781,33.998C-72.822,34.45 -73.368,36.052 -74.432,37.561C-75.516,39.062 -77.118,40.455 -80.3,40.455L-83.87,40.455C-90.234,40.455 -90.306,34.896 -92.382,33.998C-94.451,33.143 -94.271,33.552 -95.507,28.632C-95.729,27.806 -97.238,27.519 -97.245,22.361C-97.245,20.903 -98.919,11.256 -101.849,7.894C-102.719,6.889 -102.481,5.352 -102.755,3.57C-103.085,1.487 -103.717,-0.661 -104.177,-1.07L-104.141,-1.12C-106.763,-1.673 -109.873,-2.981 -113.156,-5.718C-122.206,-13.296 -109.859,-12.218 -106.131,-11.522C-105.06,-11.32 -104.019,-11.033 -103.056,-10.674L-102.848,-10.796C-103.624,-16.42 -108.149,-21.362 -113.723,-22.497C-119.505,-23.697 -125.899,-20.68 -128.678,-15.458C-130.984,-11.126 -130.84,-5.876 -132.737,-1.357C-135.488,5.179 -142.779,9.475 -149.818,8.713C-156.434,7.995 -162.259,2.888 -164.019,-3.491C-164.077,-3.663 -164.127,-3.836 -164.17,-4.008C-164.113,-4.044 -164.048,-4.073 -163.969,-4.087C-163.875,-3.943 -163.797,-3.785 -163.689,-3.634C-161.886,-1.027 -158.819,0.668 -155.644,0.74C-152.031,0.819 -148.446,-1.228 -146.679,-4.374C-144.819,-7.7 -144.991,-11.715 -144.568,-15.501C-143.978,-20.838 -142.096,-26.031 -139.022,-30.442C-134.36,-37.151 -126.911,-41.892 -118.845,-43.17C-110.771,-44.463 -102.173,-42.237 -95.808,-37.122C-91.937,-33.997 -88.934,-29.853 -87.124,-25.227C-86.219,-22.921 -85.608,-20.493 -85.35,-18.015C-85.336,-17.95 -85.336,-17.886 -85.336,-17.821L-83.525,-18.108L-83.525,-18.123L-80.638,-18.123L-80.638,-18.108L-78.835,-17.821C-78.835,-17.886 -78.835,-17.95 -78.82,-18.015C-78.555,-20.493 -77.937,-22.921 -77.039,-25.227C-75.236,-29.853 -72.233,-33.997 -68.355,-37.122C-61.99,-42.237 -53.399,-44.463 -45.325,-43.17C-37.259,-41.892 -29.81,-37.151 -25.148,-30.442C-22.074,-26.031 -20.192,-20.838 -19.596,-15.501C-19.179,-11.715 -19.344,-7.7 -17.477,-4.374C-15.71,-1.228 -12.14,0.819 -8.526,0.74C-5.351,0.668 -2.27,-1.027 -0.46,-3.634C-0.374,-3.785 -0.295,-3.943 -0.201,-4.087C-0.122,-4.073 -0.057,-4.044 0,-4.008" style="fill:rgb(220,211,195);fill-rule:nonzero;"/>
        </g>
    </g>
</svg>
