<?xml version="1.0" encoding="UTF-8" standalone="no"?>
<!DOCTYPE svg PUBLIC "-//W3C//DTD SVG 1.1//EN" "http://www.w3.org/Graphics/SVG/1.1/DTD/svg11.dtd">
<svg width="100%" height="100%" viewBox="0 0 160 77" version="1.1" xmlns="http://www.w3.org/2000/svg" xmlns:xlink="http://www.w3.org/1999/xlink" xml:space="preserve" xmlns:serif="http://www.serif.com/" style="fill-rule:evenodd;clip-rule:evenodd;stroke-linejoin:round;stroke-miterlimit:2;">
    <g transform="matrix(1,0,0,1,-461.833,-78.9359)">
        <path d="M494.577,118.647C498.521,118.665 502.466,118.681 506.411,118.694C509.857,118.689 515.112,120.651 515.087,128.651C515.061,137.119 509.656,139.153 506.355,138.796C504.575,138.622 502.797,138.435 501.021,138.236C501.018,140.146 501.014,142.056 501.01,143.967C501.002,147.896 501.631,148.903 502.53,150.012C502.935,150.462 502.618,150.936 502.123,150.847C499.599,150.401 497.081,149.912 494.57,149.38C494.077,149.276 493.763,148.709 494.167,148.432C495.063,147.71 495.693,146.957 495.696,143.147C495.699,137.137 495.703,131.128 495.707,125.119C495.709,121.402 495.12,120.335 494.169,119.508C493.761,119.141 494.078,118.646 494.577,118.647ZM504.243,133.283C507.138,133.513 509.182,132.118 509.193,128.61C509.203,125.2 507.166,124.068 504.266,123.986C503.194,123.953 502.122,123.92 501.05,123.885L501.032,133.026C502.102,133.115 503.172,133.201 504.243,133.283ZM519.236,153.205C518.736,153.155 518.42,152.562 518.83,152.195C519.741,151.263 520.38,150.345 520.392,146.091L520.449,125.956C520.46,121.804 519.874,120.623 518.925,119.699C518.518,119.289 518.837,118.731 519.336,118.731C521.875,118.736 524.415,118.741 526.955,118.744C527.454,118.745 527.77,119.318 527.361,119.733C526.406,120.666 525.814,121.856 525.804,126.056C525.788,133.249 525.771,140.441 525.754,147.634C527.756,147.751 529.759,147.846 531.763,147.918C535.498,148.046 536.592,147.627 537.504,146.487C537.641,146.331 537.777,146.281 537.914,146.283C538.233,146.288 538.506,146.606 538.369,146.972C537.821,149.669 537.272,152.362 536.723,155.05C536.586,155.52 536.448,155.727 536.22,155.721C536.084,155.718 535.993,155.663 535.856,155.502C535.036,154.369 534.169,154.21 530.478,154.039C526.726,153.854 522.977,153.576 519.236,153.205ZM542.649,118.755C545.189,118.755 547.729,118.754 550.269,118.751C550.767,118.751 551.085,119.327 550.678,119.747C549.727,120.692 549.138,121.902 549.143,126.154C549.15,131.685 549.156,137.216 549.163,142.746C549.166,145.635 551.219,148.261 553.724,148.146C556.228,148.03 558.269,145.258 558.262,142.415L558.223,126.045C558.213,121.852 557.62,120.663 556.665,119.731C556.256,119.317 556.573,118.744 557.072,118.744C559.611,118.74 562.151,118.735 564.691,118.729C565.19,118.728 565.509,119.287 565.102,119.696C564.152,120.617 563.566,121.798 563.578,125.942C563.594,131.72 563.611,137.499 563.627,143.278C563.642,148.307 559.705,153.947 554.373,154.273C553.948,154.297 553.522,154.32 553.097,154.342C547.763,154.62 543.791,149.244 543.791,144.035L543.785,126.18C543.783,121.914 543.193,120.705 542.241,119.756C541.833,119.335 542.15,118.755 542.649,118.755ZM569.417,150.656C569.145,150.688 569.008,150.553 569.007,150.2C569.121,147.94 569.235,145.683 569.349,143.429C569.349,143.345 569.349,143.261 569.348,143.178C569.347,142.826 569.528,142.61 569.846,142.581C570.072,142.562 570.345,142.736 570.482,143.174C571.127,145.846 576.654,146.08 578.639,145.781C581.304,145.407 583.915,143.535 583.911,141.34C583.915,135.884 569.123,140.925 569.072,127.162C569.056,122.009 572.762,117.931 578.068,117.964C580.063,117.965 581.787,118.205 583.193,118.529C583.919,118.67 584.826,118.991 585.506,118.987C585.642,118.987 585.733,118.938 585.869,118.892C586.005,118.798 586.141,118.752 586.277,118.751C586.594,118.75 586.731,119.025 586.686,119.533L586.596,119.995C586.551,120.55 586.325,122.033 586.146,123.381C586.056,124.173 585.966,125.056 585.832,125.944C585.787,126.318 585.606,126.514 585.29,126.53C585.063,126.542 584.927,126.454 584.837,126.226C583.475,123.725 581.345,123.438 578.763,123.512C576.497,123.567 574.325,125.049 574.332,127.272C574.356,133.561 589.375,129.102 589.36,140.774C589.358,146.377 583.395,150.578 578.654,151.383C575.946,151.833 573.41,151.47 571.004,150.516C570.732,150.399 570.459,150.331 570.187,150.364C570.006,150.386 569.825,150.458 569.643,150.579C569.599,150.636 569.508,150.645 569.417,150.656ZM461.833,94.672C461.833,85.239 467.094,78.936 474.123,78.936C481.152,78.936 486.412,85.239 486.412,94.672C486.412,101.837 483.374,107.234 478.839,109.364C479.882,110.045 481.016,110.589 482.331,111.088C482.648,111.179 482.92,111.224 483.102,111.224C483.419,111.224 483.782,111.133 484.145,110.906C484.281,110.861 484.372,110.816 484.417,110.816C484.734,110.816 484.961,111.179 484.825,111.541L483.329,116.575C475.211,114.761 470.767,110.09 469.679,109.501C465.008,107.46 461.833,101.973 461.833,94.672ZM474.123,104.649C477.841,104.649 480.335,100.657 480.335,94.672C480.335,88.686 477.841,84.694 474.123,84.694C470.404,84.694 467.91,88.686 467.91,94.672C467.91,100.657 470.404,104.649 474.123,104.649ZM490.631,79.344L498.25,79.344C498.748,79.344 499.066,79.843 498.658,80.205C497.705,81.022 497.116,82.065 497.116,85.738L497.116,100.069C497.116,102.563 499.156,104.875 501.651,104.875C504.145,104.875 506.186,102.563 506.186,100.069L506.186,85.738C506.186,82.065 505.596,81.022 504.644,80.205C504.235,79.843 504.553,79.344 505.052,79.344L512.671,79.344C513.17,79.344 513.487,79.843 513.079,80.205C512.126,81.022 511.537,82.065 511.537,85.738L511.537,101.112C511.537,105.601 507.591,110.227 502.286,110.227L501.016,110.227C495.71,110.227 491.764,105.601 491.764,101.112L491.764,85.738C491.764,82.065 491.175,81.022 490.223,80.205C489.815,79.843 490.132,79.344 490.631,79.344ZM517.071,109.093C517.978,108.186 518.613,107.324 518.613,103.56L518.613,85.738C518.613,82.065 518.023,81.022 517.071,80.205C516.663,79.843 516.98,79.344 517.479,79.344L528.544,79.344C532.036,79.344 536.934,81.157 536.934,88.322C536.934,93.447 534.666,95.896 532.081,96.985L535.483,105.102L535.483,105.057C536.934,108.594 537.342,108.685 538.113,109.047C538.43,109.184 538.476,109.954 537.796,109.954L530.947,109.954C530.449,109.954 530.132,109.501 530.54,109.093C531.175,108.458 531.084,108.231 530.358,106.417L526.821,97.71L523.964,97.71L523.964,103.56C523.964,107.324 524.599,108.186 525.506,109.093C525.914,109.455 525.596,109.954 525.098,109.954L517.479,109.954C516.98,109.954 516.663,109.455 517.071,109.093ZM526.413,92.722C529.315,92.722 531.356,91.542 531.356,88.322C531.356,85.194 529.315,84.332 526.413,84.332L523.964,84.332L523.964,92.722L526.413,92.722ZM542.15,109.093C543.057,108.186 543.692,107.324 543.692,103.56L543.692,85.738C543.692,82.065 543.102,81.022 542.15,80.205C541.742,79.843 542.059,79.344 542.558,79.344L553.532,79.344C560.788,79.344 562.648,83.516 562.648,86.781C562.648,89.864 561.469,91.86 559.791,93.175C563.419,94.127 565.686,96.304 565.686,100.522C565.686,104.739 562.466,109.954 555.936,109.954L542.558,109.954C542.059,109.954 541.742,109.455 542.15,109.093ZM549.587,96.168L549.587,104.966L552.807,104.966C556.979,104.966 559.337,104.105 559.337,100.114C559.337,96.939 557.07,96.168 555.211,96.168L549.587,96.168ZM549.587,84.332L549.587,91.044L551.718,91.044C554.621,91.044 556.662,90.364 556.662,87.235C556.662,84.332 554.621,84.332 551.718,84.332L549.587,84.332ZM566.776,109.093C567.637,108.231 568.544,108.548 569.633,105.102L575.573,85.557L575.528,85.602C576.571,82.2 576.843,81.067 575.891,80.205C575.483,79.843 575.8,79.344 576.299,79.344L583.782,79.344C583.918,79.344 583.963,79.389 584.008,79.525L591.718,105.057C592.943,108.503 593.758,108.231 594.62,109.093C595.028,109.455 594.711,109.954 594.212,109.954L586.095,109.954C585.596,109.954 585.188,109.501 585.687,109.093C586.231,108.548 586.593,108.004 586.276,106.599L585.46,103.741L575.846,103.741L575.075,106.599C574.757,108.004 575.075,108.548 575.664,109.093C576.072,109.501 575.755,109.954 575.256,109.954L567.184,109.954C566.685,109.954 566.368,109.455 566.776,109.093ZM577.07,99.343L584.19,99.343L580.562,86.917L577.07,99.343ZM598.114,79.344L604.372,79.344L614.666,97.755L614.666,85.738C614.666,82.065 614.077,81.022 613.124,80.205C612.716,79.843 613.033,79.344 613.532,79.344L620.925,79.344C621.423,79.344 621.696,79.843 621.333,80.205C620.335,81.067 619.791,82.019 619.791,85.738L619.791,103.56C619.791,107.369 620.335,108.095 621.333,109.093C621.696,109.455 621.423,109.954 620.925,109.954L614.666,109.954L604.372,91.225L604.372,103.56C604.372,107.324 605.007,108.186 605.914,109.093C606.322,109.455 606.005,109.954 605.506,109.954L598.114,109.954C597.615,109.954 597.298,109.455 597.706,109.093C598.613,108.186 599.247,107.324 599.247,103.56L599.247,85.738C599.247,82.065 598.658,81.022 597.706,80.205C597.298,79.843 597.615,79.344 598.114,79.344Z" style="fill:rgb(220,211,195);"/>
    </g>
</svg>
