<?xml version="1.0" encoding="UTF-8" standalone="no"?>
<!DOCTYPE svg PUBLIC "-//W3C//DTD SVG 1.1//EN" "http://www.w3.org/Graphics/SVG/1.1/DTD/svg11.dtd">
<svg width="100%" height="100%" viewBox="0 0 30 30" version="1.1" xmlns="http://www.w3.org/2000/svg" xmlns:xlink="http://www.w3.org/1999/xlink" xml:space="preserve" xmlns:serif="http://www.serif.com/" style="fill-rule:evenodd;clip-rule:evenodd;stroke-linejoin:round;stroke-miterlimit:2;">
    <g transform="matrix(1,0,0,1,-871.307,-596.562)">
        <g transform="matrix(0.30518,0,0,0.30518,615.824,414.503)">
            <g transform="matrix(1,0,0,1,328.864,-9.23736)">
                <rect x="508.292" y="605.799" width="98.303" height="98.303" style="fill:rgb(126,98,63);"/>
            </g>
            <g transform="matrix(0.715859,0,0,0.715859,921.6,639.296)">
                <path d="M0,18.466C-0.969,19.077 -1.58,19.94 -1.58,19.94C-1.58,20.882 -2.31,21.745 -4.899,22.542C-7.501,23.351 -12.492,20.962 -12.492,20.962C-12.492,20.962 -15.121,20.55 -17.896,20.962C-20.723,21.36 -25.303,24.958 -26.259,27.639L-26.498,28.343C-26.75,29.047 -26.618,36.906 -26.618,36.906C-26.87,40.251 -26.047,43.384 -25.529,45.336C-25.502,45.376 -25.502,45.415 -25.489,45.468L-25.171,46.238C-24.533,48.814 -21.931,50.394 -19.369,49.756L-18.32,49.491C-18.32,49.491 -18.506,50.367 -19.9,50.792C-24.958,52.04 -30.069,48.947 -31.291,43.902L-31.33,43.889C-31.543,46.464 -30.321,49.053 -27.972,50.487L-28.104,50.619C-31.901,51.535 -34.198,48.495 -36.627,45.468C-44.035,36.242 -55.319,37.835 -56.912,38.101C-57.019,38.127 -57.138,38.167 -57.244,38.22C-60.55,40.105 -64.771,39.03 -66.75,35.751L-66.75,35.552C-63.683,36.295 -60.59,34.914 -59.05,32.339L-58.89,32.047C-62.209,34.051 -66.55,32.989 -68.568,29.671L-68.568,29.471C-64.811,30.401 -59.514,27.135 -57.789,23.524L-55.2,17.231C-53.633,11.005 -52.253,5.363 -52.717,5.297C-55.293,4.912 -58.545,3.704 -61.97,0.65C-69.71,-6.306 -58.85,-4.979 -55.598,-4.248L-55.571,-4.262C-57.789,-6.107 -62.82,-8.019 -65.488,-8.497C-70.161,-9.346 -75.365,-7.74 -78.326,-4.023C-80.463,-1.341 -81.207,2.416 -80.304,5.682C-80.171,6.146 -79.985,6.611 -79.786,7.062C-78.684,10.169 -75.299,12.439 -71.276,12.439C-67.028,12.439 -63.484,9.903 -62.608,6.518C-61.506,8.098 -60.988,10.328 -62.077,13.501C-62.355,14.351 -62.767,15.081 -63.218,15.771C-64.506,17.351 -66.139,18.612 -68.024,19.475C-70.347,20.537 -72.777,21.121 -75.206,21.294C-81.578,21.758 -87.99,19.316 -92.663,14.51C-98.412,8.602 -100.483,-0.425 -98.611,-8.483C-96.739,-16.502 -91.163,-23.458 -84.101,-27.693C-77.011,-31.954 -68.542,-33.574 -60.284,-33.043C-55.718,-32.738 -51.177,-31.755 -46.942,-30.03C-44.818,-29.167 -42.787,-28.118 -40.875,-26.897C-39.787,-26.193 -32.963,-22.277 -32.963,-22.277L-24.215,-17.219C-22.409,-16.024 -20.604,-15.413 -19.608,-14.802C-18.665,-14.218 -17.192,-8.165 -17.192,-8.165C-17.192,-8.165 -15.997,-7.05 -15.028,-5.616C-14.059,-4.169 -8.722,0.079 -7.634,2.615C-6.558,5.164 -1.832,8.549 -0.969,9.638C-0.12,10.726 -0.863,13.156 0,14.112C0.836,15.081 0.969,17.882 0,18.466" style="fill:rgb(220,211,195);fill-rule:nonzero;"/>
            </g>
        </g>
    </g>
</svg>
