<?xml version="1.0" encoding="UTF-8" standalone="no"?>
<!DOCTYPE svg PUBLIC "-//W3C//DTD SVG 1.1//EN" "http://www.w3.org/Graphics/SVG/1.1/DTD/svg11.dtd">
<svg width="100%" height="100%" viewBox="0 0 30 30" version="1.1" xmlns="http://www.w3.org/2000/svg" xmlns:xlink="http://www.w3.org/1999/xlink" xml:space="preserve" xmlns:serif="http://www.serif.com/" style="fill-rule:evenodd;clip-rule:evenodd;stroke-linejoin:round;stroke-miterlimit:2;">
    <g transform="matrix(0.30518,0,0,0.30518,-255.483,-182.059)">
        <g>
            <g transform="matrix(1,0,0,1,328.864,-9.23736)">
                <rect x="508.292" y="605.799" width="98.303" height="98.303" style="fill:rgb(126,98,63);"/>
            </g>
            <g transform="matrix(0.862486,0,0,0.862486,906.368,664.47)">
                <path d="M0,-43.614C0.661,-46.241 1.244,-48.622 1.048,-48.65C-0.039,-48.813 -1.412,-49.322 -2.857,-50.611C-6.123,-53.546 -1.541,-52.986 -0.168,-52.683L-0.162,-52.689C-1.104,-53.462 -3.215,-54.274 -4.341,-54.476C-6.313,-54.835 -8.509,-54.157 -9.758,-52.588C-10.66,-51.457 -10.974,-49.871 -10.593,-48.493C-10.537,-48.292 -10.459,-48.096 -10.375,-47.905C-9.91,-46.594 -8.481,-45.636 -6.784,-45.636C-4.991,-45.636 -3.495,-46.706 -3.126,-48.135C-2.661,-47.468 -2.442,-46.533 -2.902,-45.194C-3.019,-44.835 -3.193,-44.522 -3.383,-44.236C-3.927,-43.569 -4.616,-43.037 -5.411,-42.673C-6.392,-42.225 -7.417,-41.978 -8.442,-41.905C-11.131,-41.709 -13.837,-42.74 -15.808,-44.768C-18.234,-47.261 -19.108,-51.07 -18.318,-54.47C-17.528,-57.854 -15.175,-60.789 -12.195,-62.576C-9.204,-64.374 -5.63,-65.058 -2.145,-64.834C-0.219,-64.705 1.697,-64.29 3.484,-63.562C4.381,-63.198 5.238,-62.756 6.044,-62.24C6.498,-61.943 8.829,-60.588 9.316,-60.235L9.383,-60.291L13.075,-58.151C13.837,-57.647 14.599,-57.389 15.019,-57.131C15.416,-56.885 16.038,-54.33 16.038,-54.33C16.038,-54.33 16.542,-53.865 16.951,-53.255C17.36,-52.644 19.612,-50.852 20.072,-49.782C20.525,-48.706 22.52,-47.278 22.884,-46.818C23.242,-46.359 22.928,-45.334 23.293,-44.93C23.646,-44.522 23.702,-43.34 23.293,-43.093C22.884,-42.835 22.626,-42.471 22.626,-42.471C22.626,-42.074 22.318,-41.709 21.225,-41.379C20.128,-41.032 18.021,-42.046 18.021,-42.046C18.021,-42.046 16.912,-42.214 15.741,-42.046C14.548,-41.872 12.615,-40.354 12.212,-39.222L12.111,-38.925L12.105,-38.887C12.001,-38.589 11.917,-36.638 11.965,-35.436L11.962,-35.437C11.963,-35.032 11.976,-33.751 12.022,-32.603C12.069,-31.413 11.743,-27.244 11.653,-26.151C11.457,-23.747 9.774,-21.016 8.965,-19.778C8.156,-18.541 6.368,-16.212 5.464,-15.26C4.853,-14.618 4.352,-13.69 3.775,-12.655L3.774,-12.657C3.556,-10.433 3.22,-7.171 3.044,-6.292C2.771,-4.923 2.532,-3.608 2.233,-2.771C1.935,-1.935 1.935,-0.381 2.233,0.456C2.532,1.293 2.502,2.07 2.009,3.325C1.516,4.58 1.277,6.97 1.516,8.584C1.755,10.198 2.481,12.827 3.044,13.664C3.608,14.501 5.473,16.428 5.678,18.68C5.678,19.601 1.071,19.806 0.559,18.219C0.047,16.632 0.252,15.404 -0.362,15.097C-0.976,14.79 -0.464,15.865 -0.925,15.813C-1.386,15.762 -2,15.353 -1.898,14.175C-1.795,12.998 -1.181,10.951 -1.181,9.927C-1.181,8.903 -2.051,3.813 -2.666,2.289C-3.28,0.764 -2.666,-5.276 -2.87,-6.555C-2.982,-7.253 -3.63,-8.29 -3.381,-9.052C-3.646,-9.011 -4.213,-9.103 -4.213,-9.103C-6.781,-5.398 -13.363,-2.66 -13.148,-1.692C-12.887,-0.515 -12.364,0.139 -14.649,1.708C-16.935,3.277 -17.987,8.77 -18.05,11.119C-18.146,14.709 -17.44,15.031 -16.895,15.961C-16.35,16.891 -14.587,20.643 -14.651,20.835C-14.715,21.027 -14.715,21.316 -17.12,21.38C-19.525,21.444 -20.326,20.354 -20.647,19.745C-20.968,19.136 -20.968,17.725 -21,17.308C-21.032,16.891 -21.32,17.372 -21.481,17.436C-21.641,17.5 -22.026,17.308 -22.09,17.115C-22.154,16.923 -22.161,15.83 -21.794,15.148C-21.427,14.466 -21.156,12.005 -21.128,11.477C-21.023,9.485 -18.965,1.534 -19.714,0.224C-20.462,-1.086 -19.246,-1.74 -18.684,-2.582C-18.363,-3.065 -17.95,-4.774 -17.903,-6.322C-17.976,-6.328 -29.814,-4.963 -36.159,-7.863C-36.645,-6.941 -37.119,-6.067 -37.319,-5.777C-37.802,-5.08 -39.141,-1.276 -39.355,-0.847C-39.57,-0.419 -39.677,2.1 -39.623,2.421C-39.57,2.743 -35.712,10.351 -35.444,10.887C-35.176,11.423 -34.158,11.369 -33.14,12.226C-32.122,13.084 -31.104,14.155 -30.407,15.495C-29.711,16.834 -29.443,17.799 -31.318,17.799C-33.193,17.799 -34.962,18.335 -35.712,16.513C-36.14,15.549 -36.248,15.281 -36.676,15.709C-37.105,16.138 -37.694,16.031 -38.016,15.334C-38.337,14.638 -39.73,11.208 -40.213,10.03C-40.695,8.851 -42.677,4.725 -43.106,4.136C-43.535,3.546 -45.142,-0.204 -45.785,-1.437C-46.428,-2.669 -46.053,-3.205 -45.785,-3.794C-45.746,-3.88 -45.689,-3.988 -45.623,-4.111C-46.233,-3.514 -46.925,-2.819 -47.742,-2.002C-52.231,2.487 -58.581,0.626 -59.129,1.173C-59.129,1.173 -65.172,4.624 -65.667,10.821C-65.72,11.487 -64.794,13.091 -64.794,13.091C-64.794,13.091 -63.675,13.793 -63.468,14.335C-63.053,15.247 -61.893,18.811 -61.893,18.811C-61.893,18.811 -62.597,19.723 -64.172,19.806C-65.748,19.889 -68.027,18.687 -68.152,18.148C-68.276,17.609 -68.774,16.034 -68.774,16.034C-68.774,16.034 -68.359,15.329 -68.608,15.122C-68.856,14.915 -69.188,15.122 -69.561,15.122C-69.934,15.122 -70.1,14.791 -70.1,14.417C-70.1,14.417 -69.595,8.75 -67.852,4.467C-66.111,0.184 -67.451,-0.094 -67.317,-0.63C-67.182,-1.166 -66.915,-2.908 -65.575,-2.774C-64.235,-2.64 -60.349,-5.722 -57.937,-6.927C-55.525,-8.134 -54.453,-14.833 -53.515,-19.389C-52.577,-23.945 -48.825,-26.357 -46.14,-27.124C-39.997,-28.878 -37.018,-26.229 -31.257,-27.842C-25.495,-29.455 -23.642,-30.38 -20.651,-32.396C-15.081,-36.149 -8.189,-35.609 -6.013,-36.462C-4.283,-37.14 -2.401,-38.993 -1.36,-40.578C-0.786,-41.54 -0.33,-42.627 0.028,-43.694" style="fill:rgb(220,211,195);fill-rule:nonzero;"/>
            </g>
        </g>
    </g>
</svg>
