<?xml version="1.0" encoding="UTF-8" standalone="no"?>
<!DOCTYPE svg PUBLIC "-//W3C//DTD SVG 1.1//EN" "http://www.w3.org/Graphics/SVG/1.1/DTD/svg11.dtd">
<svg width="100%" height="100%" viewBox="0 0 59 62" version="1.1" xmlns="http://www.w3.org/2000/svg" xmlns:xlink="http://www.w3.org/1999/xlink" xml:space="preserve" xmlns:serif="http://www.serif.com/" style="fill-rule:evenodd;clip-rule:evenodd;stroke-linejoin:round;stroke-miterlimit:2;">
    <g transform="matrix(1,0,0,1,-3154.5,-932.46)">
        <g transform="matrix(1,0,0,1,-0.583057,0)">
            <g transform="matrix(1,0,0,1,0.583057,107.159)">
                <path d="M3197.69,840.573L3204.95,840.573C3207.16,840.573 3209,842.253 3209.21,844.45L3212.66,881.635C3212.78,882.914 3212.36,884.183 3211.49,885.132C3210.63,886.082 3209.4,886.622 3208.12,886.622L3159.06,886.622C3157.78,886.622 3156.55,886.082 3155.69,885.132C3154.82,884.183 3154.4,882.914 3154.51,881.635L3157.97,844.45C3158.17,842.253 3160.02,840.573 3162.22,840.573L3169.49,840.573L3169.49,839.403C3169.49,831.62 3175.81,825.301 3183.59,825.301C3191.37,825.301 3197.69,831.62 3197.69,839.403L3197.69,840.573ZM3173.49,840.573L3193.69,840.573L3193.69,839.403C3193.69,833.828 3189.16,829.301 3183.59,829.301C3178.01,829.301 3173.49,833.828 3173.49,839.403L3173.49,840.573ZM3193.69,847.955C3193.69,853.531 3189.16,858.057 3183.59,858.057C3178.01,858.057 3173.49,853.531 3173.49,847.955L3169.49,847.955C3169.49,855.738 3175.81,862.057 3183.59,862.057C3191.37,862.057 3197.69,855.738 3197.69,847.955L3193.69,847.955Z" style="fill:rgb(220,211,195);"/>
            </g>
        </g>
    </g>
</svg>
