<svg width="33" height="33" viewBox="0 0 33 33" fill="none" xmlns="http://www.w3.org/2000/svg">
<path d="M11.3692 24.3258C9.9444 24.3258 8.79157 25.4916 8.79157 26.9164C8.79157 28.3413 9.9444 29.5071 11.3692 29.5071C12.7941 29.5071 13.9599 28.3413 13.9599 26.9164C13.9599 25.4916 12.7941 24.3258 11.3692 24.3258ZM3.59735 3.60075V6.19138H6.18798L10.8511 16.0228L9.10244 19.1963C8.89519 19.559 8.77861 19.9865 8.77861 20.4399C8.77861 21.8647 9.9444 23.0305 11.3692 23.0305H26.913V20.4399H11.9133C11.7319 20.4399 11.5894 20.2974 11.5894 20.116L11.6283 19.9606L12.7941 17.8492H22.4442C23.4157 17.8492 24.2706 17.3181 24.711 16.515L29.3482 8.10845C29.4506 7.91804 29.505 7.7069 29.505 7.49058C29.505 6.77945 28.9195 6.19268 28.2083 6.19138H9.05063L7.83303 3.60075H3.59735ZM24.3224 24.3258C22.8976 24.3258 21.7447 25.4916 21.7447 26.9164C21.7447 28.3413 22.8976 29.5071 24.3224 29.5071C25.7472 29.5071 26.913 28.3413 26.913 26.9164C26.913 25.4916 25.7472 24.3258 24.3224 24.3258Z" fill="#731E19"/>
</svg>
