<svg width="33" height="33" viewBox="0 0 33 33" fill="none" xmlns="http://www.w3.org/2000/svg">
<path fill-rule="evenodd" clip-rule="evenodd" d="M10.8961 8.49999V9.50673H8.22895C6.94032 9.50673 5.8611 10.4786 5.72553 11.7605L4.03018 27.8683C4.02078 27.9556 4.01675 28.0442 4.01675 28.1314C4.01675 29.5126 5.15236 30.6482 6.5336 30.6482H27.3395C28.7208 30.6482 29.8564 29.5126 29.8564 28.1314C29.8564 28.0442 29.8524 27.9556 29.843 27.8683L28.1476 11.7605C28.0134 10.4853 26.9261 9.50673 25.6442 9.50673H22.977V8.49999C22.977 5.18581 20.2508 2.45956 16.9366 2.45956C13.6224 2.45956 10.8961 5.18581 10.8961 8.49999ZM16.9366 4.47304C14.7271 4.47304 12.9096 6.29054 12.9096 8.49999V9.50673H20.9635V8.49999C20.9635 6.29054 19.146 4.47304 16.9366 4.47304ZM12.9096 15.5472C12.9096 17.7566 14.7271 19.5741 16.9366 19.5741C19.146 19.5741 20.9635 17.7566 20.9635 15.5472V14.5404C20.9635 13.9887 21.4186 13.5337 21.9703 13.5337C22.522 13.5337 22.977 13.9887 22.977 14.5404V15.5472C22.977 18.8614 20.2508 21.5876 16.9366 21.5876C13.6224 21.5876 10.8961 18.8614 10.8961 15.5472V14.5404C10.8961 13.9887 11.3512 13.5337 11.9029 13.5337C12.4546 13.5337 12.9096 13.9887 12.9096 14.5404V15.5472Z" fill="#731E19"/>
</svg>
