<?xml version="1.0" encoding="UTF-8" standalone="no"?>
<!DOCTYPE svg PUBLIC "-//W3C//DTD SVG 1.1//EN" "http://www.w3.org/Graphics/SVG/1.1/DTD/svg11.dtd">
<svg width="100%" height="100%" viewBox="0 0 62 62" version="1.1" xmlns="http://www.w3.org/2000/svg" xmlns:xlink="http://www.w3.org/1999/xlink" xml:space="preserve" xmlns:serif="http://www.serif.com/" style="fill-rule:evenodd;clip-rule:evenodd;stroke-linejoin:round;stroke-miterlimit:2;">
    <g transform="matrix(1,0,0,1,-0.00292969,-6.10352e-05)">
        <path d="M4.913,47.298C1.803,42.505 0.003,36.792 0.003,30.661C0.003,13.739 13.743,0 30.663,0C47.583,0 61.323,13.739 61.323,30.661C61.323,36.792 59.523,42.505 56.413,47.298C50.953,55.735 41.453,61.321 30.663,61.321C19.873,61.321 10.373,55.735 4.913,47.298ZM8.663,41.809C12.733,49.824 21.063,55.321 30.663,55.321C40.263,55.321 48.583,49.824 52.663,41.809C47.323,35.647 39.443,31.746 30.663,31.746C21.883,31.746 14.003,35.647 8.663,41.809ZM30.663,9.939C25.423,9.939 21.163,14.195 21.163,19.437C21.163,24.679 25.423,28.935 30.663,28.935C35.903,28.935 40.163,24.679 40.163,19.437C40.163,14.195 35.903,9.939 30.663,9.939Z" style="fill:rgb(115,30,25);"/>
    </g>
</svg>
